#!OML:ASF \\sashay\E\basketball\basketball\Project 1\Capture day 1\Session 1\Subject.ASF
:FULLY-SPECIFIED
:DEGREES
34
root -17.3337 14.5279 8.23045 -140.92 54.4422 -149.452
lowerback 11.3102 5.02747 -0.645861
upperback 7.39062 7.2098 4.19631
thorax 0.806068 3.75393 3.94555
lowerneck -5.80096 -8.23878 -12.9291
upperneck -14.9109 -7.92049 22.0805
head -1.6924 -3.60844 8.97163
rclavicle 1.15295e-014 -8.34896e-015
rhumerus -10.4408 -3.62641 -83.4627
rradius 92.4282
rwrist 6.22584
rhand -21.8152 24.7794
rfingers 7.12502
rthumb 4.58725 -5.15096
lclavicle 1.15295e-014 -8.34896e-015
lhumerus -72.632 -11.4641 96.0539
lradius 46.5012
lwrist 23.9309
lhand -26.2435 31.7174
lfingers 7.12502
lthumb 0.310549 61.6969
rfemur 36.7199 -9.15712 24.5003
rtibia -4.45278e-014
rfoot 13.2353 1.86354
rtoes -40.798
lfemur -65.2104 5.2498 -20.3903
ltibia 62.6396
lfoot -6.67268 2.33396
ltoes -8.66229
35
root -16.7899 14.5231 7.97024 -140.303 52.6353 -148.914
lowerback 11.3479 4.94451 0.63045
upperback 7.40675 7.25457 4.49405
thorax 0.909898 3.82388 3.54702
lowerneck -5.13462 -8.58105 -12.7314
upperneck -16.274 -8.15747 22.5986
head -2.12095 -3.7803 9.17747
rclavicle -1.20861e-013 2.70347e-014
rhumerus -8.7626 -3.67546 -83.8081
rradius 89.8749
rwrist 3.98204
rhand -21.6663 24.9078
rfingers 7.12502
rthumb 4.73104 -5.0194
lclavicle -1.20861e-013 2.70347e-014
lhumerus -69.6455 -11.5632 95.4705
lradius 46.258
lwrist 24.5483
lhand -27.1673 31.5747
lfingers 7.12502
lthumb -0.581637 61.5537
rfemur 37.7712 -9.62551 26.1274
rtibia 4.13472e-014
rfoot 13.9825 0.379092
rtoes -39.0241
lfemur -65.2783 4.72344 -20.3311
ltibia 56.7702
lfoot -4.1734 1.81398
ltoes -12.9792
36
root -16.2557 14.5222 7.705 -139.559 51.2001 -147.88
lowerback 11.8177 4.97688 2.02793
upperback 7.39003 7.48747 4.72037
thorax 0.767857 3.99499 2.94391
lowerneck -4.47645 -8.88676 -12.4684
upperneck -17.4543 -8.36892 23.0704
head -2.50899 -3.94576 9.35878
rclavicle -1.20464e-013 -6.71892e-014
rhumerus -6.81481 -3.65101 -84.316
rradius 85.7804
rwrist 3.23706
rhand -21.5069 24.8689
rfingers 7.12502
rthumb 4.88495 -5.05474
lclavicle -1.20464e-013 -6.71892e-014
lhumerus -66.8476 -12.0799 95.7705
lradius 45.9641
lwrist 23.5446
lhand -29.5589 33.3689
lfingers 7.12502
lthumb -2.8915 63.3291
rfemur 38.8671 -9.65482 27.7933
rtibia 1.90833e-014
rfoot 14.8721 0.0865034
rtoes -40.5401
lfemur -64.718 4.82927 -20.3302
ltibia 51.3678
lfoot -1.90538 0.68419
ltoes -12.655
37
root -15.7236 14.508 7.43951 -138.925 49.9362 -146.848
lowerback 12.2554 5.03915 3.44256
upperback 7.44705 7.7743 4.82309
thorax 0.75206 4.19552 2.21153
lowerneck -4.12674 -9.244 -12.0668
upperneck -18.411 -8.64305 23.5312
head -2.7791 -4.13006 9.48964
rclavicle -7.63333e-014 -9.14409e-015
rhumerus -4.54706 -3.66683 -85.2553
rradius 80.4194
rwrist 2.49606
rhand -21.3045 24.6917
rfingers 7.12502
rthumb 5.08038 -5.22736
lclavicle -7.63333e-014 -9.14409e-015
lhumerus -63.5903 -12.6794 95.6728
lradius 45.4196
lwrist 23.3206
lhand -31.0028 33.2703
lfingers 7.12502
lthumb -4.28589 63.2069
rfemur 39.9583 -9.58869 29.4282
rtibia 1.27222e-014
rfoot 15.883 -0.572693
rtoes -40.7027
lfemur -64.0676 5.35799 -20.8396
ltibia 46.5135
lfoot 1.28196 -1.4559
ltoes -12.8683
38
root -15.1973 14.4959 7.16829 -138.343 49.0202 -145.574
lowerback 12.6129 5.13806 4.70499
upperback 7.80463 8.11612 4.97249
thorax 1.08582 4.43828 1.64293
lowerneck -4.13271 -9.59084 -11.6187
upperneck -19.3467 -8.87175 23.8253
head -3.00874 -4.26389 9.5445
rclavicle -1.82882e-014 -9.14409e-015
rhumerus -1.55368 -4.34871 -86.3866
rradius 74.537
rwrist 0.321724
rhand -21.0261 24.4714
rfingers 7.12502
rthumb 5.34919 -5.44109
lclavicle -1.82882e-014 -9.14409e-015
lhumerus -59.9348 -13.0765 95.6982
lradius 44.9219
lwrist 22.9453
lhand -31.9515 33.3967
lfingers 7.12502
lthumb -5.20194 63.3129
rfemur 38.8737 -9.28958 31.0333
rtibia 4.30748
rfoot 15.5801 -2.0859
rtoes -41.7249
lfemur -63.0215 6.2673 -21.3441
ltibia 42.7179
lfoot 3.31989 -3.28077
ltoes -11.3817
39
root -14.6759 14.471 6.89338 -138.443 48.549 -145.038
lowerback 12.9896 5.18893 5.34435
upperback 8.21126 8.3242 5.01476
thorax 1.40175 4.59853 1.31836
lowerneck -4.13302 -9.85139 -11.1315
upperneck -20.2061 -9.03375 23.8264
head -3.25919 -4.3609 9.49704
rclavicle -4.33351e-014 -2.34566e-014
rhumerus 1.92182 -5.68641 -87.7897
rradius 68.0639
rwrist -1.90942
rhand -20.7455 24.2449
rfingers 7.12502
rthumb 5.62006 -5.66061
lclavicle -4.33351e-014 -2.34566e-014
lhumerus -56.1919 -13.0771 95.7415
lradius 44.2976
lwrist 22.1127
lhand -32.1147 34.2664
lfingers 7.12502
lthumb -5.35945 64.1786
rfemur 34.2705 -8.95327 31.8161
rtibia 15.55
rfoot 12.6372 -4.58603
rtoes -43.3643
lfemur -61.7045 7.21464 -22.65
ltibia 39.9976
lfoot 4.72384 -4.88145
ltoes -5.58295
40
root -14.1507 14.4396 6.61244 -139.509 48.8451 -145.533
lowerback 13.6425 5.35368 4.98579
upperback 8.53499 8.57034 4.82727
thorax 1.3781 4.73053 1.24224
lowerneck -4.1185 -10.0466 -10.7132
upperneck -20.6918 -9.21159 23.6879
head -3.41064 -4.46329 9.39517
rclavicle -4.65156e-014 8.98507e-014
rhumerus 5.61068 -7.36984 -89.4993
rradius 60.5196
rwrist -2.89671
rhand -20.5296 24.0315
rfingers 7.12502
rthumb 5.82855 -5.86835
lclavicle -4.65156e-014 8.98507e-014
lhumerus -52.5497 -12.9713 95.8973
lradius 43.2618
lwrist 21.1372
lhand -31.8717 34.9181
lfingers 7.12502
lthumb -5.12488 64.8361
rfemur 31.787 -10.1027 30.1019
rtibia 23.5659
rfoot 11.0469 -4.65899
rtoes -44.6996
lfemur -60.1392 8.23172 -25.0104
ltibia 38.7367
lfoot 4.84134 -6.025
ltoes -3.98034
41
root -13.6258 14.3995 6.32665 -141.129 49.6161 -146.809
lowerback 14.2204 5.57875 3.87871
upperback 8.78619 8.77754 4.55315
thorax 1.22013 4.8053 1.47705
lowerneck -3.86803 -10.1334 -10.422
upperneck -21.1365 -9.30516 23.3834
head -3.61318 -4.53006 9.27722
rclavicle -1.86858e-014 3.45885e-014
rhumerus 9.61154 -10.0687 -91.6673
rradius 52.737
rwrist -3.35004
rhand -20.3251 23.7392
rfingers 7.12502
rthumb 6.02591 -6.15512
lclavicle -1.86858e-014 3.45885e-014
lhumerus -49.0711 -12.8357 96.4594
lradius 42.0475
lwrist 20.7389
lhand -32.2566 34.6509
lfingers 7.12502
lthumb -5.49646 64.5596
rfemur 29.4752 -11.2029 27.5069
rtibia 31.0814
rfoot 9.0605 -4.97702
rtoes -46.2076
lfemur -58.601 9.08401 -27.8286
ltibia 39.092
lfoot 4.01924 -4.96295
ltoes 9.52227
42
root -13.1187 14.3558 6.04382 -142.768 50.3423 -148.223
lowerback 14.7104 5.72256 2.67464
upperback 8.99949 8.85251 4.39754
thorax 1.03572 4.80738 1.90766
lowerneck -3.41814 -10.0783 -10.3544
upperneck -21.6186 -9.2437 22.9572
head -3.88464 -4.51528 9.18133
rclavicle 8.90555e-014 -1.98785e-015
rhumerus 13.9124 -14.6491 -94.8291
rradius 45.3634
rwrist -2.7765
rhand -20.1357 23.3857
rfingers 7.12502
rthumb 6.20879 -6.50335
lclavicle 8.90555e-014 -1.98785e-015
lhumerus -45.4959 -12.2813 97.1799
lradius 40.6276
lwrist 20.052
lhand -32.1922 34.0423
lfingers 7.12502
lthumb -5.4343 63.9526
rfemur 27.0057 -12.3047 24.7653
rtibia 38.2613
rfoot 7.50465 -5.92189
rtoes -45.3517
lfemur -57.0143 9.73768 -30.4221
ltibia 41.1491
lfoot -0.341064 1.60475
ltoes 20.023
43
root -12.6363 14.3062 5.77 -144.334 50.7756 -149.339
lowerback 15.5742 5.72874 1.78641
upperback 9.19873 8.80889 4.38312
thorax 0.671051 4.76571 2.28738
lowerneck -3.34312 -9.93066 -10.5301
upperneck -21.6705 -9.09327 22.6243
head -3.95548 -4.41901 9.11583
rclavicle -5.36719e-014 -6.16232e-014
rhumerus 18.194 -19.5982 -98.7618
rradius 38.4289
rwrist 0.103545
rhand -20.0615 23.2204
rfingers 7.12502
rthumb 6.28044 -6.6665
lclavicle -5.36719e-014 -6.16232e-014
lhumerus -41.6822 -11.1072 97.7299
lradius 38.9614
lwrist 18.4926
lhand -31.6268 32.2973
lfingers 7.12502
lthumb -4.88837 62.2209
rfemur 24.4952 -13.3209 22.4531
rtibia 45.3087
rfoot 6.4769 -6.09061
rtoes -41.2556
lfemur -55.1931 9.24071 -31.0925
ltibia 44.6417
lfoot -6.25916 8.66711
ltoes 28.0541
44
root -12.1748 14.2926 5.47793 -145.538 50.9931 -150.176
lowerback 16.6193 5.64933 1.29096
upperback 9.25152 8.69133 4.36027
thorax 0.1228 4.69765 2.4306
lowerneck -3.48322 -9.83404 -10.5711
upperneck -21.5161 -9.0175 22.3563
head -3.91824 -4.35975 9.02033
rclavicle -1.15295e-014 2.46493e-014
rhumerus 21.8094 -23.0654 -102.462
rradius 32.5637
rwrist 5.38211
rhand -20.1365 23.3242
rfingers 7.12502
rthumb 6.20807 -6.56486
lclavicle -1.15295e-014 2.46493e-014
lhumerus -37.8012 -9.42549 98.1222
lradius 37.3569
lwrist 16.708
lhand -30.7728 31.0942
lfingers 7.12502
lthumb -4.06377 61.0352
rfemur 21.5775 -14.1556 20.5855
rtibia 52.2245
rfoot 4.98309 -7.04806
rtoes -42.8748
lfemur -54.6003 7.59516 -30.2901
ltibia 49.0507
lfoot -8.16143 8.52735
ltoes 28.2672
45
root -11.7098 14.2195 5.23768 -147.11 50.75 -151.295
lowerback 17.6873 5.48849 0.468066
upperback 9.4161 8.43458 4.53073
thorax -0.376864 4.5578 2.99224
lowerneck -3.50005 -9.768 -10.7969
upperneck -21.4855 -8.9004 22.5877
head -3.89286 -4.2977 9.14021
rclavicle -1.16885e-013 -1.39149e-014
rhumerus 22.3408 -22.4117 -103.837
rradius 29.4227
rwrist 11.4089
rhand -20.2952 23.6504
rfingers 7.12502
rthumb 6.05482 -6.24303
lclavicle -1.16885e-013 -1.39149e-014
lhumerus -33.697 -6.92535 98.4159
lradius 35.8725
lwrist 14.7007
lhand -29.7984 29.8567
lfingers 7.12502
lthumb -3.12281 59.8136
rfemur 18.6736 -15.0121 19.3192
rtibia 59.1051
rfoot 3.80997 -7.88982
rtoes -41.0936
lfemur -54.157 6.07605 -29.5964
ltibia 53.5826
lfoot -10.9976 6.34847
ltoes 27.7617
46
root -11.2573 14.1267 5.02181 -148.711 50.4973 -152.49
lowerback 18.6771 5.36609 -0.543832
upperback 9.73424 8.19712 4.7018
thorax -0.679279 4.4302 3.6918
lowerneck -3.52109 -9.65312 -11.1863
upperneck -22.1506 -8.50007 23.1116
head -4.08874 -4.07581 9.44565
rclavicle -2.0276e-014 4.05521e-014
rhumerus 22.3348 -20.7836 -104.123
rradius 27.5467
rwrist 14.1994
rhand -20.3058 23.8769
rfingers 7.12502
rthumb 6.04462 -6.01685
lclavicle -2.0276e-014 4.05521e-014
lhumerus -29.4223 -3.67931 98.7001
lradius 34.6579
lwrist 12.3265
lhand -29.0297 28.389
lfingers 7.12502
lthumb -2.38042 58.3555
rfemur 15.2164 -15.6192 18.2212
rtibia 65.9664
rfoot 2.92306 -7.97637
rtoes -41.2567
lfemur -53.685 5.22059 -29.4556
ltibia 57.5688
lfoot -12.8837 8.14375
ltoes 23.7447
47
root -10.7804 14.0688 4.80965 -151.104 50.1892 -154.824
lowerback 19.3912 5.33137 -2.19387
upperback 10.1377 7.93903 4.61352
thorax -0.765337 4.27259 4.52525
lowerneck -3.83802 -9.85368 -11.4604
upperneck -22.5994 -8.44328 24.2766
head -4.06251 -4.04081 9.9076
rclavicle -5.20816e-014 3.77691e-014
rhumerus 21.5558 -18.1314 -103.258
rradius 25.8454
rwrist 18.1279
rhand -20.3334 24.1556
rfingers 7.12502
rthumb 6.01799 -5.73889
lclavicle -5.20816e-014 3.77691e-014
lhumerus -25.4747 -0.759686 99.0637
lradius 34.2931
lwrist 10.0821
lhand -28.001 26.717
lfingers 7.12502
lthumb -1.38691 56.6923
rfemur 11.5923 -16.3755 16.6987
rtibia 72.4587
rfoot 1.4502 -7.80375
rtoes -39.7578
lfemur -52.5734 4.84216 -30.3678
ltibia 60.5475
lfoot -15.0547 8.5294
ltoes 21.4656
